<svg xmlns="http://www.w3.org/2000/svg" viewBox="0 0 512 512">
  <defs>
    <linearGradient id="g" x1="0" y1="0" x2="1" y2="1">
      <stop offset="0" stop-color="#7dff4a"/>
      <stop offset="1" stop-color="#39ff14"/>
    </linearGradient>
  </defs>
  <rect width="512" height="512" fill="url(#g)"/>
  <circle cx="420" cy="92" r="120" fill="#ffffff" opacity=".12"/>
  <!-- the calendar page -->
  <rect x="114" y="136" width="284" height="276" rx="40" fill="#000" opacity=".12" transform="translate(8 12)"/>
  <rect x="114" y="136" width="284" height="276" rx="40" fill="#ffffff"/>
  <path d="M154 136h204a40 40 0 0 1 40 40v50H114v-50a40 40 0 0 1 40-40z" fill="#e3ffd9"/>
  <rect x="176" y="104" width="30" height="72" rx="15" fill="#ffffff" stroke="#16c233" stroke-width="10"/>
  <rect x="306" y="104" width="30" height="72" rx="15" fill="#ffffff" stroke="#16c233" stroke-width="10"/>
  <rect x="150" y="262" width="40" height="36" rx="9" fill="#b8f7a8"/><rect x="204" y="262" width="40" height="36" rx="9" fill="#b8f7a8"/><rect x="258" y="262" width="40" height="36" rx="9" fill="#b8f7a8"/><rect x="312" y="262" width="40" height="36" rx="9" fill="#b8f7a8"/><rect x="150" y="316" width="40" height="36" rx="9" fill="#b8f7a8"/><rect x="204" y="316" width="40" height="36" rx="9" fill="#b8f7a8"/><rect x="312" y="316" width="40" height="36" rx="9" fill="#b8f7a8"/><rect x="150" y="370" width="40" height="36" rx="9" fill="#b8f7a8"/><rect x="204" y="370" width="40" height="36" rx="9" fill="#b8f7a8"/><rect x="258" y="370" width="40" height="36" rx="9" fill="#b8f7a8"/><rect x="312" y="370" width="40" height="36" rx="9" fill="#b8f7a8"/>
  <!-- today, with a heart -->
  <rect x="258" y="316" width="40" height="36" rx="9" fill="#39ff14"/>
  <path d="M278 345c-9-6-14-11-14-17a7 7 0 0 1 14-2 7 7 0 0 1 14 2c0 6-5 11-14 17z" fill="#ffffff"/>
</svg>
