<svg xmlns="http://www.w3.org/2000/svg" viewBox="0 0 512 512">
  <defs>
    <linearGradient id="rb" x1="0" y1="0" x2="1" y2="1">
      <stop offset="0" stop-color="#ff3b3b"/>
      <stop offset=".2" stop-color="#ff9a1f"/>
      <stop offset=".38" stop-color="#ffe11f"/>
      <stop offset=".56" stop-color="#3ddc5a"/>
      <stop offset=".74" stop-color="#2f8bff"/>
      <stop offset="1" stop-color="#a14bff"/>
    </linearGradient>
    <linearGradient id="pk" x1="0" y1="0" x2="0" y2="1">
      <stop offset="0" stop-color="#ff4fb0"/>
      <stop offset="1" stop-color="#ff1f8e"/>
    </linearGradient>
  </defs>
  <!-- Shaana's Planner: a big bright pink calendar on a rainbow -->
  <rect width="512" height="512" fill="url(#rb)"/>
  <circle cx="420" cy="92" r="120" fill="#ffffff" opacity=".14"/>
  <g transform="translate(256 262) scale(1.38) translate(-256 -258)">
    <rect x="114" y="136" width="284" height="276" rx="40" fill="#000" opacity=".16" transform="translate(8 12)"/>
    <rect x="114" y="136" width="284" height="276" rx="40" fill="url(#pk)" stroke="#ffffff" stroke-width="8"/>
    <path d="M154 140h204a36 36 0 0 1 36 36v50H118v-50a36 36 0 0 1 36-36z" fill="#9b3dff"/>
    <rect x="176" y="104" width="30" height="72" rx="15" fill="#ffffff" stroke="#7a1fe6" stroke-width="10"/>
    <rect x="306" y="104" width="30" height="72" rx="15" fill="#ffffff" stroke="#7a1fe6" stroke-width="10"/>
    <rect x="150" y="262" width="40" height="36" rx="9" fill="#ffb3d9"/><rect x="204" y="262" width="40" height="36" rx="9" fill="#ffb3d9"/><rect x="258" y="262" width="40" height="36" rx="9" fill="#ffb3d9"/><rect x="312" y="262" width="40" height="36" rx="9" fill="#ffb3d9"/><rect x="150" y="316" width="40" height="36" rx="9" fill="#ffb3d9"/><rect x="204" y="316" width="40" height="36" rx="9" fill="#ffb3d9"/><rect x="312" y="316" width="40" height="36" rx="9" fill="#ffb3d9"/><rect x="150" y="370" width="40" height="36" rx="9" fill="#ffb3d9"/><rect x="204" y="370" width="40" height="36" rx="9" fill="#ffb3d9"/><rect x="258" y="370" width="40" height="36" rx="9" fill="#ffb3d9"/><rect x="312" y="370" width="40" height="36" rx="9" fill="#ffb3d9"/>
    <rect x="258" y="316" width="40" height="36" rx="9" fill="#ffffff"/>
    <path d="M278 345c-9-6-14-11-14-17a7 7 0 0 1 14-2 7 7 0 0 1 14 2c0 6-5 11-14 17z" fill="#ff1f8e"/>
  </g>
</svg>
